<svg width="256" height="256" xmlns="http://www.w3.org/2000/svg" fill="#222266" stroke="black" stroke-width="4">
    <path
        d="M40.46 246.527a7.377 7.377 0 0 0 7.377 7.378H93.08v-81.978a7.377 7.377 0 0 1 7.377-7.377h55.082a7.377 7.377 0 0 1 7.378 7.377v81.978h45.246a7.377 7.377 0 0 0 7.378-7.378v-96.395H40.46v96.395z"/>
    <path
        d="M107.835 179.305h40.335v74.6h-40.335v-74.6zM71.449 76.558h113.115a7.377 7.377 0 0 0 5.356-12.453L133.36 4.4a7.377 7.377 0 0 0-10.713 0L66.088 64.11a7.377 7.377 0 0 0 5.357 12.453l.004-.004zm159.977 46.57L203.488 91.29H52.52l-27.933 31.84a7.377 7.377 0 0 0 5.545 12.248h195.741a7.377 7.377 0 0 0 6.72-4.334 7.377 7.377 0 0 0-1.175-7.91l.008-.005z"/>
</svg>
