<svg height="256" width="256" fill="#228822" xmlns="http://www.w3.org/2000/svg" stroke="black" stroke-width="4">
    <path
        d="M252.51 170.428c0-18.59-14.88-34.057-32.524-37.322-2.9-15.685-16.646-27.985-32.722-30.526a22.718 22.718 0 0 0 1.473-8.073c0-12.577-10.2-22.777-22.777-22.777a22.7 22.7 0 0 0-9.222 1.945c-4.727-18.703-19.202-32.312-36.33-32.312-20.965 0-39.479 20.392-39.479 45.552 0 1.402.05 2.784.157 4.155a30.215 30.215 0 0 0-15.341-4.155c-16.773 0-30.368 13.595-30.368 30.369a30.198 30.198 0 0 0 4.777 16.358C19.65 138.318 3.49 156.412 3.49 178.021c0 16.014 9.779 30.094 22.276 38.218a22.696 22.696 0 0 0-5.573 14.926c0 12.577 10.199 22.777 22.777 22.777h170.063c12.577 0 22.777-10.2 22.777-22.777 0-12.577-10.2-22.776-22.777-22.776 20.964 0 39.479-16.997 39.479-37.961z"/>
    <circle cx="70" cy="116" r="8" fill="#CC2233"/>
    <circle cx="230" cy="170" r="8" fill="#CC2233"/>
    <circle cx="64" cy="180" r="8" fill="#CC2233"/>
    <circle cx="180" cy="230" r="8" fill="#CC2233"/>
    <circle cx="60" cy="235" r="8" fill="#CC2233"/>
</svg>
