<svg height="256" width="256" stroke="#000" stroke-width="4" xmlns="http://www.w3.org/2000/svg">
    <path fill="#ba6746"
          d="M176.775 74.527c-.063-12.935-10.395-22.923-23.032-22.923h-3.116l-8.213 1.893-6.643-1.892h-33.477c-12.658 0-23.007 9.987-23.07 22.922v73.24c0 5.503 4.291 9.963 9.583 9.963 5.293 0 9.584-4.46 9.584-9.962V74.614c.018-1.895 2.07-3.619 4.1-3.619v51.653l3.2 22.717-3.201 19.462v77.275c0 6.603 5.19 11.955 11.542 11.955 6.352 0 11.5-5.352 11.5-11.955v-95.559h4.97v95.559c0 6.603 5.148 11.955 11.5 11.955 6.35 0 11.523-5.352 11.523-11.955v-77.275l-2.582-19.955 2.582-22.224V70.994c2.008 0 4.064 1.722 4.084 3.616v73.158c0 5.502 4.29 9.962 9.584 9.962 5.292 0 9.582-4.46 9.582-9.962zm-28.914-50.686A19.862 20.648 0 0 1 128 44.487a19.862 20.648 0 0 1-19.862-20.646A19.862 20.648 0 0 1 128 3.193a19.862 20.648 0 0 1 19.862 20.648z"/>
    <path d="m137.97 122.648 12.655-71.043H135.77l-23.73 71.043h-9.55v42.179h51.035v-42.18z" fill="#ffaa50"/>
</svg>
